<svg width="51" height="50" viewBox="0 0 51 50" fill="none" xmlns="http://www.w3.org/2000/svg">
<path fill-rule="evenodd" clip-rule="evenodd" d="M21.9015 45.8125C21.9986 46.0802 21.8274 46.3678 21.5457 46.4101C17.5696 47.0058 13.4733 46.3229 9.87058 44.1778C6.26838 42.033 3.71619 38.7576 2.34514 34.9787C2.248 34.711 2.41925 34.4234 2.70092 34.3811C6.677 33.7854 10.7734 34.4683 14.376 36.6134C17.9782 38.7582 20.5304 42.0336 21.9015 45.8125Z" fill="#FCE459"/>
<path fill-rule="evenodd" clip-rule="evenodd" d="M41.8961 22.8721C42.0309 23.123 42.3595 23.1871 42.5787 23.0053C45.6738 20.4391 47.896 16.9306 48.6992 12.8152C49.5023 8.70006 48.7625 4.61376 46.8597 1.07224C46.7249 0.821352 46.3964 0.75723 46.1771 0.939016C43.0821 3.50526 40.8598 7.01371 40.0567 11.1291C39.2535 15.2443 39.9934 19.3306 41.8961 22.8721Z" fill="#005CDD"/>
<path opacity="0.4" d="M25.6388 38.0938H32.2888" stroke="#005CDD" stroke-width="2" stroke-linecap="round" stroke-linejoin="round"/>
<path opacity="0.4" d="M12.3388 38.0938V21.4688C12.3388 14.8188 14.0013 13.1562 20.6513 13.1562" stroke="#005CDD" stroke-width="2" stroke-linecap="round" stroke-linejoin="round"/>
<path opacity="0.4" d="M45.5888 38.0938V21.4688C45.5888 14.8188 43.9263 13.1562 37.2763 13.1562" stroke="#005CDD" stroke-width="2" stroke-linecap="round" stroke-linejoin="round"/>
<path d="M25.6388 35.4504V40.92C25.6388 44.245 24.3088 45.575 20.9838 45.575H16.9938C13.6688 45.575 12.3388 44.245 12.3388 40.92V35.4504C12.3388 32.1254 13.6688 30.7954 16.9938 30.7954H20.9838C24.3088 30.7954 25.6388 32.1254 25.6388 35.4504Z" stroke="#005CDD" stroke-width="2" stroke-linecap="round" stroke-linejoin="round"/>
<path d="M45.5888 35.4504V40.92C45.5888 44.245 44.2588 45.575 40.9338 45.575H36.9438C33.6188 45.575 32.2888 44.245 32.2888 40.92V35.4504C32.2888 32.1254 33.6188 30.7954 36.9438 30.7954H40.9338C44.2588 30.7954 45.5888 32.1254 45.5888 35.4504Z" stroke="#005CDD" stroke-width="2" stroke-linecap="round" stroke-linejoin="round"/>
</svg>
