<svg width="32" height="32" viewBox="0 0 32 32" fill="none" xmlns="http://www.w3.org/2000/svg">
<path d="M28 9.33334V22.6667C28 26.6667 26 29.3333 21.3333 29.3333H10.6667C6 29.3333 4 26.6667 4 22.6667V9.33334C4 5.33334 6 2.66667 10.6667 2.66667H21.3333C26 2.66667 28 5.33334 28 9.33334Z" stroke="#001E21" stroke-width="1.5" stroke-miterlimit="10" stroke-linecap="round" stroke-linejoin="round"/>
<path d="M20.6667 2.66667V13.1467C20.6667 13.7333 19.9733 14.0266 19.5466 13.64L16.4534 10.7867C16.2 10.5467 15.8 10.5467 15.5466 10.7867L12.4534 13.64C12.0267 14.0266 11.3333 13.7333 11.3333 13.1467V2.66667H20.6667Z" stroke="#001E21" stroke-width="1.5" stroke-miterlimit="10" stroke-linecap="round" stroke-linejoin="round"/>
<path d="M17.6667 18.6667H23.3333" stroke="#001E21" stroke-width="1.5" stroke-miterlimit="10" stroke-linecap="round" stroke-linejoin="round"/>
<path d="M12 24H23.3333" stroke="#001E21" stroke-width="1.5" stroke-miterlimit="10" stroke-linecap="round" stroke-linejoin="round"/>
</svg>
