<svg width="38" height="38" viewBox="0 0 38 38" fill="none" xmlns="http://www.w3.org/2000/svg">
<rect width="38" height="38" fill="#F6F4FF"/>
<path d="M20.4002 24.4201H17.8902C16.2502 24.4201 14.9202 23.0401 14.9202 21.3401C14.9202 20.9301 15.2602 20.5901 15.6702 20.5901C16.0802 20.5901 16.4202 20.9301 16.4202 21.3401C16.4202 22.2101 17.0802 22.9201 17.8902 22.9201H20.4002C21.0502 22.9201 21.5902 22.3401 21.5902 21.6401C21.5902 20.7701 21.2802 20.6001 20.7702 20.4201L16.7402 19.0001C15.9602 18.7301 14.9102 18.1501 14.9102 16.3601C14.9102 14.8201 16.1202 13.5801 17.6002 13.5801H20.1102C21.7502 13.5801 23.0802 14.9601 23.0802 16.6601C23.0802 17.0701 22.7402 17.4101 22.3302 17.4101C21.9202 17.4101 21.5802 17.0701 21.5802 16.6601C21.5802 15.7901 20.9202 15.0801 20.1102 15.0801H17.6002C16.9502 15.0801 16.4102 15.6601 16.4102 16.3601C16.4102 17.2301 16.7202 17.4001 17.2302 17.5801L21.2602 19.0001C22.0402 19.2701 23.0902 19.8501 23.0902 21.6401C23.0802 23.1701 21.8802 24.4201 20.4002 24.4201Z" fill="#794BFB"/>
<path d="M19 25.75C18.59 25.75 18.25 25.41 18.25 25V13C18.25 12.59 18.59 12.25 19 12.25C19.41 12.25 19.75 12.59 19.75 13V25C19.75 25.41 19.41 25.75 19 25.75Z" fill="#794BFB"/>
<path d="M19 29.75C13.07 29.75 8.25 24.93 8.25 19C8.25 13.07 13.07 8.25 19 8.25C24.93 8.25 29.75 13.07 29.75 19C29.75 24.93 24.93 29.75 19 29.75ZM19 9.75C13.9 9.75 9.75 13.9 9.75 19C9.75 24.1 13.9 28.25 19 28.25C24.1 28.25 28.25 24.1 28.25 19C28.25 13.9 24.1 9.75 19 9.75Z" fill="#794BFB"/>
</svg>
