<svg width="35" height="35" viewBox="0 0 35 35" fill="none" xmlns="http://www.w3.org/2000/svg">
<path d="M6.28906 16.413V23.422C6.28906 25.9886 6.28906 25.9886 8.7147 27.6245L15.3852 31.4745C16.3865 32.0527 18.0224 32.0527 19.0237 31.4745L25.6942 27.6245C28.1198 25.9886 28.1198 25.9886 28.1198 23.422V16.413C28.1198 13.8463 28.1198 13.8463 25.6942 12.2104L19.0237 8.36041C18.0224 7.78221 16.3865 7.78221 15.3852 8.36041L8.7147 12.2104C6.28906 13.8463 6.28906 13.8463 6.28906 16.413Z" stroke="#FFD444" stroke-width="2.11538" stroke-linecap="round" stroke-linejoin="round"/>
<path d="M24.9606 11.6311V7.92218C24.9606 5.10166 23.5503 3.69141 20.7298 3.69141H13.6785C10.858 3.69141 9.44775 5.10166 9.44775 7.92218V11.5324" stroke="#FFD444" stroke-width="2.11538" stroke-linecap="round" stroke-linejoin="round"/>
<path d="M18.093 16.37L18.8969 17.6251C19.0238 17.8225 19.3058 18.02 19.5174 18.0764L20.9558 18.4431C21.8443 18.6687 22.084 19.4302 21.5058 20.1354L20.561 21.2777C20.4199 21.461 20.3071 21.7854 20.3212 22.011L20.4058 23.4918C20.4622 24.4084 19.8135 24.8738 18.9674 24.5354L17.5853 23.9854C17.3738 23.9008 17.0212 23.9008 16.8097 23.9854L15.4276 24.5354C14.5815 24.8738 13.9328 24.3943 13.9892 23.4918L14.0738 22.011C14.0879 21.7854 13.9751 21.4469 13.834 21.2777L12.8892 20.1354C12.311 19.4302 12.5507 18.6687 13.4392 18.4431L14.8776 18.0764C15.1033 18.02 15.3853 17.8084 15.4981 17.6251L16.302 16.37C16.8097 15.6084 17.5994 15.6084 18.093 16.37Z" stroke="#FFD444" stroke-width="2.11538" stroke-linecap="round" stroke-linejoin="round"/>
</svg>
