<svg width="24" height="25" viewBox="0 0 24 25" fill="none" xmlns="http://www.w3.org/2000/svg">
<path d="M4.26001 11.8427V16.8127C4.26001 18.6327 4.26001 18.6327 5.98001 19.7927L10.71 22.5227C11.42 22.9327 12.58 22.9327 13.29 22.5227L18.02 19.7927C19.74 18.6327 19.74 18.6327 19.74 16.8127V11.8427C19.74 10.0227 19.74 10.0227 18.02 8.8627L13.29 6.1327C12.58 5.7227 11.42 5.7227 10.71 6.1327L5.98001 8.8627C4.26001 10.0227 4.26001 10.0227 4.26001 11.8427Z" stroke="#7C7C7C" stroke-width="1.5" stroke-linecap="round" stroke-linejoin="round"/>
<path d="M17.5 8.45227V5.82227C17.5 3.82227 16.5 2.82227 14.5 2.82227H9.5C7.5 2.82227 6.5 3.82227 6.5 5.82227V8.38227" stroke="#7C7C7C" stroke-width="1.5" stroke-linecap="round" stroke-linejoin="round"/>
<path d="M12.63 11.8122L13.2 12.7022C13.29 12.8422 13.49 12.9822 13.64 13.0222L14.66 13.2822C15.29 13.4422 15.46 13.9822 15.05 14.4822L14.38 15.2922C14.28 15.4222 14.2 15.6522 14.21 15.8122L14.27 16.8622C14.31 17.5122 13.85 17.8422 13.25 17.6022L12.27 17.2122C12.12 17.1522 11.87 17.1522 11.72 17.2122L10.74 17.6022C10.14 17.8422 9.68002 17.5022 9.72002 16.8622L9.78002 15.8122C9.79002 15.6522 9.71002 15.4122 9.61002 15.2922L8.94002 14.4822C8.53002 13.9822 8.70002 13.4422 9.33002 13.2822L10.35 13.0222C10.51 12.9822 10.71 12.8322 10.79 12.7022L11.36 11.8122C11.72 11.2722 12.28 11.2722 12.63 11.8122Z" stroke="#7C7C7C" stroke-width="1.5" stroke-linecap="round" stroke-linejoin="round"/>
</svg>
