<svg width="24" height="25" viewBox="0 0 24 25" fill="none" xmlns="http://www.w3.org/2000/svg">
<path d="M9 22.8223H15C20 22.8223 22 20.8223 22 15.8223V9.82227C22 4.82227 20 2.82227 15 2.82227H9C4 2.82227 2 4.82227 2 9.82227V15.8223C2 20.8223 4 22.8223 9 22.8223Z" stroke="#7C7C7C" stroke-width="1.5" stroke-linecap="round" stroke-linejoin="round"/>
<path d="M18.38 16.0925V8.4025C18.38 7.6325 17.76 7.07251 17 7.13251H16.96C15.62 7.24251 13.59 7.93252 12.45 8.64252L12.34 8.71253C12.16 8.82253 11.85 8.82253 11.66 8.71253L11.5 8.61252C10.37 7.90252 8.34 7.2325 7 7.1225C6.24 7.0625 5.62 7.63252 5.62 8.39252V16.0925C5.62 16.7025 6.11998 17.2825 6.72998 17.3525L6.90997 17.3825C8.28997 17.5625 10.43 18.2725 11.65 18.9425L11.68 18.9525C11.85 19.0525 12.13 19.0525 12.29 18.9525C13.51 18.2725 15.66 17.5725 17.05 17.3825L17.26 17.3525C17.88 17.2825 18.38 16.7125 18.38 16.0925Z" stroke="#7C7C7C" stroke-width="1.5" stroke-linecap="round" stroke-linejoin="round"/>
<path d="M12 8.92285V18.4828" stroke="#7C7C7C" stroke-width="1.5" stroke-linecap="round" stroke-linejoin="round"/>
</svg>
