<svg width="20" height="20" viewBox="0 0 20 20" fill="none" xmlns="http://www.w3.org/2000/svg">
<path d="M2.91663 15.6248C2.57496 15.6248 2.29163 15.3415 2.29163 14.9998V5.83317C2.29163 2.15817 3.40829 1.0415 7.08329 1.0415H12.9166C16.5916 1.0415 17.7083 2.15817 17.7083 5.83317V14.1665C17.7083 14.2998 17.7083 14.4248 17.7 14.5582C17.675 14.8998 17.3666 15.1665 17.0333 15.1415C16.6916 15.1165 16.425 14.8165 16.45 14.4748C16.4583 14.3748 16.4583 14.2665 16.4583 14.1665V5.83317C16.4583 2.85817 15.9 2.2915 12.9166 2.2915H7.08329C4.09996 2.2915 3.54163 2.85817 3.54163 5.83317V14.9998C3.54163 15.3415 3.25829 15.6248 2.91663 15.6248Z" fill="white"/>
<path d="M14.1666 18.9583H5.83329C3.88329 18.9583 2.29163 17.3667 2.29163 15.4167V14.875C2.29163 13.2167 3.64163 11.875 5.29163 11.875H17.0833C17.425 11.875 17.7083 12.1583 17.7083 12.5V15.4167C17.7083 17.3667 16.1166 18.9583 14.1666 18.9583ZM5.29163 13.125C4.32496 13.125 3.54163 13.9083 3.54163 14.875V15.4167C3.54163 16.6833 4.56663 17.7083 5.83329 17.7083H14.1666C15.4333 17.7083 16.4583 16.6833 16.4583 15.4167V13.125H5.29163Z" fill="white"/>
<path d="M13.3333 6.4585H6.66663C6.32496 6.4585 6.04163 6.17516 6.04163 5.8335C6.04163 5.49183 6.32496 5.2085 6.66663 5.2085H13.3333C13.675 5.2085 13.9583 5.49183 13.9583 5.8335C13.9583 6.17516 13.675 6.4585 13.3333 6.4585Z" fill="white"/>
<path d="M10.8333 9.375H6.66663C6.32496 9.375 6.04163 9.09167 6.04163 8.75C6.04163 8.40833 6.32496 8.125 6.66663 8.125H10.8333C11.175 8.125 11.4583 8.40833 11.4583 8.75C11.4583 9.09167 11.175 9.375 10.8333 9.375Z" fill="white"/>
</svg>
