<svg width="10" height="11" viewBox="0 0 10 11" fill="none" xmlns="http://www.w3.org/2000/svg">
<path opacity="0.4" d="M5 9.66667C7.30118 9.66667 9.16666 7.80119 9.16666 5.5C9.16666 3.19882 7.30118 1.33334 5 1.33334C2.69881 1.33334 0.833328 3.19882 0.833328 5.5C0.833328 7.80119 2.69881 9.66667 5 9.66667Z" fill="#DC2626"/>
<path d="M5.44166 5.5L6.39999 4.54167C6.52083 4.42083 6.52083 4.22083 6.39999 4.1C6.27916 3.97917 6.07916 3.97917 5.95833 4.1L4.99999 5.05833L4.04166 4.1C3.92083 3.97917 3.72083 3.97917 3.59999 4.1C3.47916 4.22083 3.47916 4.42083 3.59999 4.54167L4.55833 5.5L3.59999 6.45833C3.47916 6.57917 3.47916 6.77917 3.59999 6.9C3.66249 6.9625 3.74166 6.99167 3.82083 6.99167C3.89999 6.99167 3.97916 6.9625 4.04166 6.9L4.99999 5.94167L5.95833 6.9C6.02083 6.9625 6.09999 6.99167 6.17916 6.99167C6.25833 6.99167 6.33749 6.9625 6.39999 6.9C6.52083 6.77917 6.52083 6.57917 6.39999 6.45833L5.44166 5.5Z" fill="#DC2626"/>
</svg>
