<svg width="38" height="38" viewBox="0 0 38 38" fill="none" xmlns="http://www.w3.org/2000/svg">
<rect width="38" height="38" fill="#F6F4FF"/>
<path d="M28 14V24C28 27 26.5 29 23 29H15C11.5 29 10 27 10 24V14C10 11 11.5 9 15 9H23C26.5 9 28 11 28 14Z" stroke="#7B61FF" stroke-width="1.5" stroke-miterlimit="10" stroke-linecap="round" stroke-linejoin="round"/>
<path d="M22.5 9V16.86C22.5 17.3 21.98 17.52 21.66 17.23L19.34 15.09C19.15 14.91 18.85 14.91 18.66 15.09L16.34 17.23C16.02 17.52 15.5 17.3 15.5 16.86V9H22.5Z" stroke="#7B61FF" stroke-width="1.5" stroke-miterlimit="10" stroke-linecap="round" stroke-linejoin="round"/>
<path d="M20.25 21H24.5" stroke="#7B61FF" stroke-width="1.5" stroke-miterlimit="10" stroke-linecap="round" stroke-linejoin="round"/>
<path d="M16 25H24.5" stroke="#7B61FF" stroke-width="1.5" stroke-miterlimit="10" stroke-linecap="round" stroke-linejoin="round"/>
</svg>
