<svg width="10" height="10" viewBox="0 0 10 10" fill="none" xmlns="http://www.w3.org/2000/svg">
<circle cx="5" cy="5" r="5" fill="#35D332" fill-opacity="0.55"/>
<path d="M6.73708 3.44767C6.77262 3.41141 6.81504 3.3826 6.86186 3.36293C6.90867 3.34326 6.95894 3.33313 7.00972 3.33313C7.0605 3.33313 7.11076 3.34326 7.15758 3.36293C7.20439 3.3826 7.24681 3.41141 7.28236 3.44767C7.4313 3.59818 7.43339 3.84139 7.28756 3.99451L4.20809 7.63488C4.17313 7.67327 4.1307 7.70413 4.0834 7.72556C4.0361 7.74699 3.98493 7.75855 3.93301 7.75952C3.88109 7.7605 3.82952 7.75087 3.78145 7.73123C3.73338 7.71159 3.68983 7.68235 3.65345 7.64529L1.77962 5.74647C1.70735 5.67277 1.66687 5.57366 1.66687 5.47045C1.66687 5.36723 1.70735 5.26812 1.77962 5.19442C1.81516 5.15816 1.85758 5.12935 1.9044 5.10968C1.95121 5.09001 2.00148 5.07988 2.05226 5.07988C2.10303 5.07988 2.1533 5.09001 2.20012 5.10968C2.24693 5.12935 2.28935 5.15816 2.32489 5.19442L3.91436 6.80525L6.72667 3.45913C6.72991 3.4551 6.73338 3.45128 6.73708 3.44767Z" fill="#2BBC5B"/>
</svg>
