<svg width="65" height="53" viewBox="0 0 65 53" fill="none" xmlns="http://www.w3.org/2000/svg">
<path d="M42.7666 -4.80719C37.8878 -4.45692 32.9642 -3.43319 28.1738 -1.75879C28.1348 -1.7387 28.1007 -1.7103 28.0739 -1.6756C28.0471 -1.6409 28.0282 -1.60073 28.0186 -1.55794C28.0293 -0.304989 28.1147 1.28785 28.2419 2.47596C23.2189 4.35612 18.5064 6.97907 14.2615 10.2573C13.3026 9.49395 12.0101 8.6111 10.9217 7.95796C10.8602 7.91592 10.7566 7.93543 10.6692 7.98406C6.72182 11.173 3.28633 14.8018 0.38856 18.7799C0.359434 18.7961 0.34652 18.8415 0.333605 18.8868C-0.990703 35.1504 3.24445 47.9001 10.6768 58.7176C10.7093 58.7758 10.7708 58.8179 10.8453 58.8146C18.2278 59.7412 24.5634 59.2667 30.4031 58.0383C30.5067 58.0188 30.5779 57.941 30.5746 57.8666C30.848 55.6162 30.9563 53.3433 30.8703 51.0641C30.8637 50.9152 30.7406 50.8311 30.6079 50.8668C28.5911 51.1501 26.5968 51.2682 24.5668 51.2536C24.4179 51.2602 24.3206 51.0855 24.3594 50.9494C24.5501 50.5381 24.7246 50.0977 24.9153 49.6863C24.9411 49.5957 25.0285 49.547 25.1029 49.5437C37.6673 48.5399 48.473 42.5256 55.8306 32.441C55.8727 32.3795 55.9601 32.3309 56.0507 32.3567C56.517 32.4405 56.9671 32.4952 57.4334 32.579C57.5985 32.6015 57.6958 32.7763 57.5826 32.9156C56.5706 34.6615 55.3739 36.2812 54.0704 37.846C53.9701 37.94 54.022 38.1018 54.0998 38.173C56.0207 39.4309 58.0095 40.5366 60.037 41.5063C60.1406 41.4868 60.2442 41.4673 60.3153 41.3895C64.4658 37.0576 68.2076 31.923 71.3104 25.1604C71.3525 25.0988 71.3492 25.0244 71.3167 24.9661C65.2547 11.0588 55.476 1.5091 42.9155 -4.81378C42.8702 -4.8267 42.8248 -4.83961 42.7666 -4.80719ZM26.9866 40.5222C23.9866 42.192 19.9417 40.8192 18.0451 37.4115C16.1484 34.0037 17.0549 29.8751 20.1131 28.1729C23.2004 26.4545 27.2032 27.8889 29.0546 31.2837C30.9513 34.6914 30.0448 38.8201 26.9866 40.5222ZM47.2873 29.2231C44.2873 30.8928 40.2424 29.5201 38.3457 26.1123C36.449 22.7046 37.3555 18.5759 40.4138 16.8738C43.5011 15.1554 47.5039 16.5897 49.3553 19.9845C51.252 23.3923 50.3746 27.5047 47.2873 29.2231Z" fill="#35CF66"/>
</svg>
