<svg width="51" height="50" viewBox="0 0 51 50" fill="none" xmlns="http://www.w3.org/2000/svg">
<path fill-rule="evenodd" clip-rule="evenodd" d="M21.9015 45.8125C21.9986 46.0802 21.8274 46.3678 21.5457 46.4101C17.5696 47.0058 13.4733 46.3229 9.87058 44.1778C6.26838 42.033 3.71619 38.7576 2.34514 34.9787C2.248 34.711 2.41925 34.4234 2.70092 34.3811C6.677 33.7854 10.7734 34.4683 14.376 36.6134C17.9782 38.7582 20.5304 42.0336 21.9015 45.8125Z" fill="#FCE459"/>
<path fill-rule="evenodd" clip-rule="evenodd" d="M41.8961 22.8721C42.0309 23.123 42.3595 23.1871 42.5787 23.0053C45.6738 20.4391 47.896 16.9306 48.6992 12.8152C49.5023 8.70006 48.7625 4.61376 46.8597 1.07224C46.7249 0.821352 46.3964 0.75723 46.1771 0.939016C43.0821 3.50526 40.8598 7.01371 40.0567 11.1291C39.2535 15.2443 39.9934 19.3306 41.8961 22.8721Z" fill="#005CDD"/>
<path d="M40.0514 45.5752H16.7764C11.7889 45.5752 11.7889 43.3308 11.7889 40.5877V38.9252C11.7889 38.0108 12.5371 37.2627 13.4514 37.2627H43.3764C44.2908 37.2627 45.0389 38.0108 45.0389 38.9252V40.5877C45.0389 43.3308 45.0389 45.5752 40.0514 45.5752Z" stroke="#005CDD" stroke-width="2" stroke-linecap="round" stroke-linejoin="round"/>
<path d="M42.9608 30.6125V37.2625H13.9502V30.6125C13.9502 24.2285 18.4556 18.8919 24.4572 17.6117C25.3549 17.4122 26.2859 17.3125 27.2502 17.3125H29.6608C30.6251 17.3125 31.5727 17.4122 32.4704 17.6117C38.4721 18.9085 42.9608 24.2285 42.9608 30.6125Z" stroke="#005CDD" stroke-width="2" stroke-linecap="round" stroke-linejoin="round"/>
<path opacity="0.34" d="M32.62 16.4814C32.62 16.8804 32.5701 17.2462 32.4704 17.6119C31.5726 17.4124 30.625 17.3127 29.6607 17.3127H27.2501C26.2859 17.3127 25.3549 17.4124 24.4571 17.6119C24.3574 17.2462 24.3075 16.8804 24.3075 16.4814C24.3075 14.1872 26.1695 12.3252 28.4637 12.3252C30.758 12.3252 32.62 14.1872 32.62 16.4814Z" stroke="#005CDD" stroke-width="2" stroke-linecap="round" stroke-linejoin="round"/>
<path opacity="0.34" d="M33.4513 27.2876H23.4763" stroke="#005CDD" stroke-width="2" stroke-linecap="round" stroke-linejoin="round"/>
</svg>
