<svg width="304" height="593" viewBox="0 0 304 593" fill="none" xmlns="http://www.w3.org/2000/svg">
<path fill-rule="evenodd" clip-rule="evenodd" d="M99.4755 610.754L-52.5287 610.821C-63.6103 610.821 -72.5557 601.809 -72.5557 590.727V475.639L-169.486 570.166C-177.43 577.91 -190.114 577.71 -197.791 569.832L-233.706 532.983L-268.552 496.601C-276.163 488.657 -275.962 476.106 -268.152 468.429L-172.156 374.169H-283.973C-295.055 374.169 -304 365.224 -304 354.143V203.14C-304 187.118 -297.591 171.831 -286.31 160.549L-142.316 17.5569C-131.034 6.34186 -115.747 0 -99.7923 0.0667564L52.212 0C63.2935 0 72.2389 9.01211 72.2389 20.0937V135.182L169.169 40.6546C177.113 32.9109 189.73 33.1112 197.474 40.9884L233.389 77.8379L268.236 114.22C275.846 122.164 275.646 134.714 267.835 142.391L171.839 236.651H283.656C294.738 236.651 303.683 245.597 303.683 256.678V407.681C303.683 423.703 297.275 438.99 285.993 450.272L142.133 593.264C130.851 604.479 115.497 610.754 99.6091 610.754H99.4755ZM-42.1148 140.722C-58.0695 140.722 -73.3567 146.931 -84.6386 158.213L-145.854 219.094C-157.203 230.376 -163.611 245.73 -163.545 261.752L-163.411 372.901L-71.4875 470.232L41.798 469.965C57.7528 469.965 73.04 463.757 84.3218 452.475L145.537 391.593C156.886 380.311 163.295 364.957 163.228 348.936L163.094 237.786L71.1708 140.455L-42.1148 140.722Z" fill="#E2F8E9" fill-opacity="0.16"/>
</svg>
