<svg width="174" height="215" viewBox="0 0 174 215" fill="none" xmlns="http://www.w3.org/2000/svg">
<path fill-rule="evenodd" clip-rule="evenodd" d="M274.669 214.775L171.191 214.821C163.647 214.821 157.557 208.686 157.557 201.142V122.795L91.5715 187.145C86.1635 192.416 77.529 192.28 72.3028 186.918L47.8535 161.832L24.1312 137.065C18.9505 131.657 19.0869 123.113 24.4039 117.887L89.7537 53.7186H13.6335C6.08962 53.7186 0 47.629 0 40.0851V-62.7112C0 -73.618 4.36272 -84.0249 12.0429 -91.705L110.068 -189.048C117.748 -196.683 128.155 -201 139.016 -200.955L242.494 -201C250.038 -201 256.127 -194.865 256.127 -187.321V-108.974L322.113 -173.324C327.521 -178.596 336.11 -178.459 341.382 -173.097L365.831 -148.011L389.554 -123.244C394.734 -117.836 394.598 -109.292 389.281 -104.066L323.931 -39.8979H400.051C407.595 -39.8979 413.685 -33.8082 413.685 -26.2644V76.532C413.685 87.4387 409.322 97.8456 401.642 105.526L303.708 202.869C296.028 210.503 285.576 214.775 274.76 214.775H274.669ZM178.28 -105.202C167.419 -105.202 157.012 -100.976 149.332 -93.2956L107.659 -51.8499C99.9333 -44.1697 95.5706 -33.7174 95.6161 -22.8106L95.7069 52.8551L158.285 119.114L235.405 118.932C246.266 118.932 256.673 114.706 264.353 107.025L306.026 65.5797C313.752 57.8995 318.114 47.4472 318.069 36.5404L317.978 -39.1253L255.4 -105.384L178.28 -105.202Z" fill="#E2F8E9"/>
</svg>
