<svg width="61" height="46" viewBox="0 0 61 46" fill="none" xmlns="http://www.w3.org/2000/svg">
<path fill-rule="evenodd" clip-rule="evenodd" d="M22.013 40.936C22.1102 41.2038 21.9389 41.4914 21.6573 41.5336C17.6812 42.1294 13.5848 41.4465 9.98215 39.3013C6.37996 37.1565 3.82777 33.8811 2.45672 30.1023C2.35957 29.8345 2.53082 29.5469 2.81249 29.5047C6.78857 28.9089 10.8849 29.5918 14.4876 31.7369C18.0898 33.8818 20.642 37.1571 22.013 40.936Z" fill="#FCE459"/>
<path fill-rule="evenodd" clip-rule="evenodd" d="M42.1571 20.4144C42.1435 20.6988 42.3921 20.923 42.6737 20.88C46.6483 20.2738 50.3598 18.4104 53.1673 15.296C55.9747 12.1819 57.4446 8.29794 57.637 4.28224C57.6506 3.99776 57.402 3.77363 57.1204 3.81658C53.1458 4.42282 49.4343 6.2862 46.6268 9.40058C43.8194 12.5148 42.3495 16.3987 42.1571 20.4144Z" fill="#005CDD"/>
<path opacity="0.4" d="M38.9956 17.8607C38.8959 17.8441 38.7795 17.8441 38.6798 17.8607C36.3855 17.7776 34.5568 15.899 34.5568 13.5715C34.5568 11.1941 36.4686 9.28223 38.846 9.28223C41.2234 9.28223 43.1353 11.2107 43.1353 13.5715C43.1186 15.899 41.2899 17.7776 38.9956 17.8607Z" stroke="#005CDD" stroke-width="2" stroke-linecap="round" stroke-linejoin="round"/>
<path opacity="0.4" d="M37.283 29.9635C39.5607 30.3459 42.071 29.9469 43.8333 28.7665C46.1774 27.2038 46.1774 24.6435 43.8333 23.0808C42.0544 21.9004 39.5108 21.5014 37.2332 21.9004" stroke="#005CDD" stroke-width="2" stroke-linecap="round" stroke-linejoin="round"/>
<path opacity="0.4" d="M18.9956 17.8607C19.0953 17.8441 19.2117 17.8441 19.3115 17.8607C21.6057 17.7776 23.4345 15.899 23.4345 13.5715C23.4345 11.1941 21.5226 9.28223 19.1452 9.28223C16.7678 9.28223 14.856 11.2107 14.856 13.5715C14.8726 15.899 16.7013 17.7776 18.9956 17.8607Z" stroke="#005CDD" stroke-width="2" stroke-linecap="round" stroke-linejoin="round"/>
<path opacity="0.4" d="M20.7079 29.9635C18.4303 30.3459 15.9199 29.9469 14.1576 28.7665C11.8135 27.2038 11.8135 24.6435 14.1576 23.0808C15.9365 21.9004 18.4801 21.5014 20.7578 21.9004" stroke="#005CDD" stroke-width="2" stroke-linecap="round" stroke-linejoin="round"/>
<path d="M29.0246 30.2792C28.9248 30.2626 28.8084 30.2626 28.7087 30.2792C26.4144 30.1961 24.5857 28.3174 24.5857 25.9899C24.5857 23.6126 26.4976 21.7007 28.8749 21.7007C31.2523 21.7007 33.1642 23.6292 33.1642 25.9899C33.1476 28.3174 31.3188 30.2127 29.0246 30.2792Z" stroke="#005CDD" stroke-width="2" stroke-linecap="round" stroke-linejoin="round"/>
<path d="M24.1867 35.516C21.8426 37.0788 21.8426 39.639 24.1867 41.2018C26.8467 42.9806 31.2024 42.9806 33.8624 41.2018C36.2066 39.639 36.2066 37.0788 33.8624 35.516C31.2191 33.7538 26.8467 33.7538 24.1867 35.516Z" stroke="#005CDD" stroke-width="2" stroke-linecap="round" stroke-linejoin="round"/>
</svg>
