<svg width="95" height="122" viewBox="0 0 95 122" fill="none" xmlns="http://www.w3.org/2000/svg">
<path fill-rule="evenodd" clip-rule="evenodd" d="M20.0624 121.127L-16.5123 121.004V121.151H-35.7182C-39.7848 121.151 -43.0675 117.844 -43.0675 113.778V71.5441L-78.6377 106.232C-81.5529 109.074 -86.2074 109.001 -89.0246 106.11L-102.204 92.5874L-114.992 79.2363C-117.785 76.3211 -117.711 71.7156 -114.845 68.8984L-79.6176 34.308H-120.651C-124.717 34.308 -128 31.0254 -128 26.9588V-28.4543C-128 -34.3337 -125.648 -39.9436 -121.508 -44.0837L-68.6672 -96.5572C-64.5272 -100.673 -58.9173 -103 -53.0624 -102.976L-16.4877 -102.853V-103H2.71823C6.78479 -103 10.0675 -99.6928 10.0675 -95.6263V-53.3927L45.6377 -88.0811C48.5529 -90.9228 53.1829 -90.8493 56.0246 -87.9586L69.2042 -74.436L81.9919 -61.0849C84.7846 -58.1697 84.7111 -53.5642 81.8449 -50.747L46.6176 -16.1566H87.6508C91.7173 -16.1566 95 -12.874 95 -8.80742V46.6057C95 52.4851 92.6483 58.095 88.5082 62.2351L35.7162 114.709C31.5762 118.824 25.9418 121.127 20.1114 121.127H20.0624ZM-16.5123 -51.4329V-51.3104L-31.8966 -51.3594C-37.7515 -51.3594 -43.3614 -49.0812 -47.5015 -44.9411L-69.9656 -22.5995C-74.1302 -18.4594 -76.4819 -12.825 -76.4574 -6.94562L-76.4084 33.8426L-42.6755 69.5598H-16.4877V69.4128L-1.10336 69.4619C4.75151 69.4619 10.3614 67.1836 14.5015 63.0435L36.9656 40.7019C41.1302 36.5618 43.4819 30.9274 43.4574 25.048L43.4084 -15.7402L9.67549 -51.4574H-16.5123V-51.4329Z" fill="white" fill-opacity="0.4"/>
</svg>
