<svg width="120" height="122" viewBox="0 0 120 122" fill="none" xmlns="http://www.w3.org/2000/svg">
<path fill-rule="evenodd" clip-rule="evenodd" d="M148.062 121.127L111.488 121.004V121.151H92.2818C88.2152 121.151 84.9325 117.844 84.9325 113.778V71.5441L49.3623 106.232C46.4471 109.074 41.7926 109.001 38.9754 106.11L25.7958 92.5874L13.0081 79.2363C10.2154 76.3211 10.2889 71.7156 13.1551 68.8984L48.3824 34.308H7.34923C3.28265 34.308 0 31.0254 0 26.9588V-28.4543C0 -34.3337 2.35176 -39.9436 6.49182 -44.0837L59.3328 -96.5572C63.4728 -100.673 69.0827 -103 74.9376 -102.976L111.512 -102.853V-103H130.718C134.785 -103 138.067 -99.6928 138.067 -95.6263V-53.3927L173.638 -88.0811C176.553 -90.9228 181.183 -90.8493 184.025 -87.9586L197.204 -74.436L209.992 -61.0849C212.785 -58.1697 212.711 -53.5642 209.845 -50.747L174.618 -16.1566H215.651C219.717 -16.1566 223 -12.874 223 -8.80742V46.6057C223 52.4851 220.648 58.095 216.508 62.2351L163.716 114.709C159.576 118.824 153.942 121.127 148.111 121.127H148.062ZM111.488 -51.4329V-51.3104L96.1034 -51.3594C90.2485 -51.3594 84.6386 -49.0812 80.4985 -44.9411L58.0344 -22.5995C53.8698 -18.4594 51.5181 -12.825 51.5426 -6.94562L51.5916 33.8426L85.3245 69.5598H111.512V69.4128L126.897 69.4619C132.752 69.4619 138.361 67.1836 142.501 63.0435L164.966 40.7019C169.13 36.5618 171.482 30.9274 171.457 25.048L171.408 -15.7402L137.675 -51.4574H111.488V-51.4329Z" fill="white" fill-opacity="0.4"/>
</svg>
