<svg width="51" height="44" viewBox="0 0 51 44" fill="none" xmlns="http://www.w3.org/2000/svg">
<path fill-rule="evenodd" clip-rule="evenodd" d="M21.7724 36.6152C21.8696 36.883 21.6983 37.1706 21.4167 37.2128C17.4406 37.8086 13.3442 37.1257 9.74155 34.9805C6.13936 32.8357 3.58717 29.5603 2.21612 25.7815C2.11897 25.5137 2.29022 25.2261 2.57189 25.1839C6.54797 24.5881 10.6443 25.271 14.247 27.4161C17.8492 29.561 20.4014 32.8363 21.7724 36.6152Z" fill="#FCE459"/>
<path fill-rule="evenodd" clip-rule="evenodd" d="M27.6982 12.3244C27.5631 12.5752 27.6906 12.8846 27.9631 12.9674C31.81 14.1364 35.9623 14.0579 39.8392 12.4606C43.7159 10.8635 46.7184 7.99468 48.6255 4.45549C48.7606 4.20477 48.6331 3.89528 48.3606 3.81247C44.5137 2.6435 40.3615 2.72207 36.4845 4.31929C32.6078 5.9164 29.6054 8.78524 27.6982 12.3244Z" fill="#005CDD"/>
<path d="M14.9225 22.5226V30.5988C14.9225 33.5563 14.9225 33.5563 17.7175 35.4413L25.4037 39.8776C26.5575 40.5438 28.4425 40.5438 29.5962 39.8776L37.2825 35.4413C40.0775 33.5563 40.0775 33.5563 40.0775 30.5988V22.5226C40.0775 19.5651 40.0775 19.5651 37.2825 17.6801L29.5962 13.2438C28.4425 12.5776 26.5575 12.5776 25.4037 13.2438L17.7175 17.6801C14.9225 19.5651 14.9225 19.5651 14.9225 22.5226Z" stroke="#005CDD" stroke-width="2" stroke-linecap="round" stroke-linejoin="round"/>
<path opacity="0.4" d="M36.4375 17.014V12.7402C36.4375 9.49023 34.8125 7.86523 31.5625 7.86523H23.4375C20.1875 7.86523 18.5625 9.49023 18.5625 12.7402V16.9002" stroke="#75AFFF" stroke-width="2" stroke-linecap="round" stroke-linejoin="round"/>
<path opacity="0.4" d="M28.5238 22.474L29.45 23.9203C29.5963 24.1478 29.9213 24.3753 30.165 24.4403L31.8225 24.8628C32.8463 25.1228 33.1225 26.0003 32.4563 26.8128L31.3675 28.129C31.205 28.3403 31.075 28.714 31.0913 28.974L31.1888 30.6803C31.2538 31.7365 30.5063 32.2728 29.5313 31.8828L27.9388 31.249C27.695 31.1515 27.2888 31.1515 27.045 31.249L25.4525 31.8828C24.4775 32.2728 23.73 31.7203 23.795 30.6803L23.8925 28.974C23.9088 28.714 23.7788 28.324 23.6163 28.129L22.5275 26.8128C21.8613 26.0003 22.1375 25.1228 23.1613 24.8628L24.8188 24.4403C25.0788 24.3753 25.4038 24.1315 25.5338 23.9203L26.46 22.474C27.045 21.5965 27.955 21.5965 28.5238 22.474Z" stroke="#75AFFF" stroke-width="1.61625" stroke-linecap="round" stroke-linejoin="round"/>
</svg>
