<svg width="38" height="38" viewBox="0 0 38 38" fill="none" xmlns="http://www.w3.org/2000/svg">
<rect width="38" height="38" fill="#F1FBF4"/>
<path d="M29 23.74V11.67C29 10.47 28.02 9.58001 26.83 9.68001H26.77C24.67 9.86001 21.48 10.93 19.7 12.05L19.53 12.16C19.24 12.34 18.76 12.34 18.47 12.16L18.22 12.01C16.44 10.9 13.26 9.84001 11.16 9.67001C9.97 9.57001 9 10.47 9 11.66V23.74C9 24.7 9.78 25.6 10.74 25.72L11.03 25.76C13.2 26.05 16.55 27.15 18.47 28.2L18.51 28.22C18.78 28.37 19.21 28.37 19.47 28.22C21.39 27.16 24.75 26.05 26.93 25.76L27.26 25.72C28.22 25.6 29 24.7 29 23.74Z" stroke="#47C367" stroke-width="1.5" stroke-linecap="round" stroke-linejoin="round"/>
<path d="M19 12.49V27.49" stroke="#47C367" stroke-width="1.5" stroke-linecap="round" stroke-linejoin="round"/>
<path d="M14.75 15.49H12.5" stroke="#47C367" stroke-width="1.5" stroke-linecap="round" stroke-linejoin="round"/>
<path d="M15.5 18.49H12.5" stroke="#47C367" stroke-width="1.5" stroke-linecap="round" stroke-linejoin="round"/>
</svg>
