<svg width="16" height="16" viewBox="0 0 16 16" fill="none" xmlns="http://www.w3.org/2000/svg">
<path fill-rule="evenodd" clip-rule="evenodd" d="M10.7051 15.8213L6.87519 15.823C6.59597 15.823 6.37058 15.5959 6.37058 15.3167V12.4169L3.92831 14.7986C3.72815 14.9938 3.40857 14.9887 3.21514 14.7902L2.31022 13.8618L1.43221 12.9451C1.24046 12.7449 1.24551 12.4287 1.4423 12.2353L3.86103 9.86027H1.04366C0.764452 9.86027 0.539062 9.63488 0.539062 9.35567V5.55097C0.539062 5.14729 0.700536 4.76211 0.984795 4.47785L4.61289 0.874985C4.89715 0.592408 5.28232 0.432617 5.68432 0.434299L9.51426 0.432617C9.79347 0.432617 10.0189 0.659688 10.0189 0.938902V3.83868L12.4611 1.45696C12.6613 1.26185 12.9792 1.26689 13.1743 1.46537L14.0792 2.39384L14.9572 3.31053C15.149 3.51069 15.1439 3.82691 14.9471 4.02034L12.5284 6.39534H15.3458C15.625 6.39534 15.8504 6.62073 15.8504 6.89994V10.7046C15.8504 11.1083 15.6889 11.4935 15.4046 11.7778L11.7799 15.3806C11.4957 15.6632 11.1088 15.8213 10.7085 15.8213H10.7051ZM7.13758 3.97829C6.73558 3.97829 6.3504 4.13472 6.06614 4.41898L4.52374 5.95297C4.2378 6.23723 4.07633 6.62409 4.07801 7.02777L4.08137 9.82831L6.3975 12.2807L9.25186 12.274C9.65386 12.274 10.039 12.1175 10.3233 11.8333L11.8657 10.2993C12.1516 10.015 12.3131 9.62815 12.3114 9.22447L12.3081 6.42393L9.99195 3.97156L7.13758 3.97829Z" fill="white"/>
</svg>
