<svg width="16" height="16" viewBox="0 0 16 16" fill="none" xmlns="http://www.w3.org/2000/svg">
<path d="M4 6.66634V5.33301C4 3.12634 4.66667 1.33301 8 1.33301C11.3333 1.33301 12 3.12634 12 5.33301V6.66634" stroke="#7A7A7A" stroke-width="1.5" stroke-linecap="round" stroke-linejoin="round"/>
<path d="M8.00016 12.3333C8.92064 12.3333 9.66683 11.5871 9.66683 10.6667C9.66683 9.74619 8.92064 9 8.00016 9C7.07969 9 6.3335 9.74619 6.3335 10.6667C6.3335 11.5871 7.07969 12.3333 8.00016 12.3333Z" stroke="#7A7A7A" stroke-width="1.5" stroke-linecap="round" stroke-linejoin="round"/>
<path d="M11.3335 14.667H4.66683C2.00016 14.667 1.3335 14.0003 1.3335 11.3337V10.0003C1.3335 7.33366 2.00016 6.66699 4.66683 6.66699H11.3335C14.0002 6.66699 14.6668 7.33366 14.6668 10.0003V11.3337C14.6668 14.0003 14.0002 14.667 11.3335 14.667Z" stroke="#7A7A7A" stroke-width="1.5" stroke-linecap="round" stroke-linejoin="round"/>
</svg>
