<svg width="16" height="16" viewBox="0 0 16 16" fill="none" xmlns="http://www.w3.org/2000/svg">
<path fill-rule="evenodd" clip-rule="evenodd" d="M10.7061 15.9102L6.87616 15.9119C6.59695 15.9119 6.37156 15.6848 6.37156 15.4056V12.5058L3.92929 14.8875C3.72913 15.0826 3.40955 15.0776 3.21611 14.8791L2.31119 13.9506L1.43318 13.0339C1.24144 12.8338 1.24648 12.5176 1.44328 12.3241L3.862 9.94914H1.04464C0.765428 9.94914 0.540039 9.72375 0.540039 9.44454V5.63983C0.540039 5.23615 0.701512 4.85097 0.985771 4.56671L4.61386 0.963852C4.89812 0.681275 5.2833 0.521484 5.6853 0.523166L9.51523 0.521484C9.79445 0.521484 10.0198 0.748555 10.0198 1.02777V3.92755L12.4621 1.54583C12.6623 1.35071 12.9802 1.35576 13.1753 1.55424L14.0802 2.48271L14.9582 3.3994C15.15 3.59956 15.1449 3.91578 14.9481 4.10921L12.5294 6.4842H15.3468C15.626 6.4842 15.8514 6.70959 15.8514 6.98881V10.7935C15.8514 11.1972 15.6899 11.5824 15.4056 11.8666L11.7809 15.4695C11.4966 15.7521 11.1098 15.9102 10.7095 15.9102H10.7061ZM7.13856 4.06716C6.73656 4.06716 6.35138 4.22358 6.06712 4.50784L4.52472 6.04183C4.23877 6.32609 4.0773 6.71296 4.07898 7.11664L4.08235 9.91718L6.39847 12.3695L9.25284 12.3628C9.65484 12.3628 10.04 12.2064 10.3243 11.9221L11.8667 10.3881C12.1526 10.1039 12.3141 9.71702 12.3124 9.31334L12.309 6.5128L9.99292 4.06043L7.13856 4.06716Z" fill="#111618"/>
</svg>
