<svg width="24" height="25" viewBox="0 0 24 25" fill="none" xmlns="http://www.w3.org/2000/svg">
<path d="M18 7.98227C17.94 7.97227 17.87 7.97227 17.81 7.98227C16.43 7.93227 15.33 6.80227 15.33 5.40227C15.33 3.97227 16.48 2.82227 17.91 2.82227C19.34 2.82227 20.49 3.98227 20.49 5.40227C20.48 6.80227 19.38 7.93227 18 7.98227Z" stroke="#7C7C7C" stroke-width="1.5" stroke-linecap="round" stroke-linejoin="round"/>
<path d="M16.9699 15.2624C18.3399 15.4924 19.8499 15.2524 20.9099 14.5424C22.3199 13.6024 22.3199 12.0624 20.9099 11.1224C19.8399 10.4124 18.3099 10.1724 16.9399 10.4124" stroke="#7C7C7C" stroke-width="1.5" stroke-linecap="round" stroke-linejoin="round"/>
<path d="M5.96998 7.98227C6.02998 7.97227 6.09998 7.97227 6.15998 7.98227C7.53998 7.93227 8.63998 6.80227 8.63998 5.40227C8.63998 3.97227 7.48998 2.82227 6.05998 2.82227C4.62998 2.82227 3.47998 3.98227 3.47998 5.40227C3.48998 6.80227 4.58998 7.93227 5.96998 7.98227Z" stroke="#7C7C7C" stroke-width="1.5" stroke-linecap="round" stroke-linejoin="round"/>
<path d="M6.99994 15.2624C5.62994 15.4924 4.11994 15.2524 3.05994 14.5424C1.64994 13.6024 1.64994 12.0624 3.05994 11.1224C4.12994 10.4124 5.65994 10.1724 7.02994 10.4124" stroke="#7C7C7C" stroke-width="1.5" stroke-linecap="round" stroke-linejoin="round"/>
<path d="M12 15.452C11.94 15.442 11.87 15.442 11.81 15.452C10.43 15.402 9.32996 14.272 9.32996 12.872C9.32996 11.442 10.48 10.292 11.91 10.292C13.34 10.292 14.49 11.452 14.49 12.872C14.48 14.272 13.38 15.412 12 15.452Z" stroke="#7C7C7C" stroke-width="1.5" stroke-linecap="round" stroke-linejoin="round"/>
<path d="M9.08997 18.6016C7.67997 19.5416 7.67997 21.0816 9.08997 22.0216C10.69 23.0916 13.31 23.0916 14.91 22.0216C16.32 21.0816 16.32 19.5416 14.91 18.6016C13.32 17.5416 10.69 17.5416 9.08997 18.6016Z" stroke="#7C7C7C" stroke-width="1.5" stroke-linecap="round" stroke-linejoin="round"/>
</svg>
