<svg width="47" height="51" viewBox="0 0 47 51" fill="none" xmlns="http://www.w3.org/2000/svg">
<path fill-rule="evenodd" clip-rule="evenodd" d="M21.7724 46C21.8696 46.2677 21.6983 46.5553 21.4167 46.5976C17.4406 47.1933 13.3442 46.5104 9.74155 44.3653C6.13936 42.2205 3.58717 38.9451 2.21612 35.1662C2.11897 34.8985 2.29022 34.6109 2.57189 34.5686C6.54797 33.9729 10.6443 34.6558 14.247 36.8009C17.8492 38.9457 20.4014 42.2211 21.7724 46Z" fill="#FCE459"/>
<path fill-rule="evenodd" clip-rule="evenodd" d="M28.1216 19.4359C28.108 19.7203 28.3566 19.9445 28.6381 19.9015C32.6127 19.2953 36.3243 17.4319 39.1318 14.3175C41.9392 11.2033 43.409 7.31943 43.6014 3.30372C43.6151 3.01924 43.3665 2.79512 43.0849 2.83806C39.1103 3.4443 35.3988 5.30768 32.5912 8.42206C29.7839 11.5362 28.314 15.4201 28.1216 19.4359Z" fill="#005CDD"/>
<path d="M20.6667 46.2308H33.3334C39.6984 46.2308 40.8384 43.6816 41.1709 40.5783L42.3584 27.9116C42.7859 24.0483 41.6775 20.8975 34.9167 20.8975H19.0834C12.3226 20.8975 11.2142 24.0483 11.6417 27.9116L12.8292 40.5783C13.1617 43.6816 14.3017 46.2308 20.6667 46.2308Z" stroke="#005CDD" stroke-width="2" stroke-miterlimit="10" stroke-linecap="round" stroke-linejoin="round"/>
<path opacity="0.4" d="M20.6666 20.8973V19.6306C20.6666 16.8281 20.6666 14.564 25.7333 14.564H28.2666C33.3333 14.564 33.3333 16.8281 33.3333 19.6306V20.8973" stroke="#75AFFF" stroke-width="2" stroke-miterlimit="10" stroke-linecap="round" stroke-linejoin="round"/>
<g opacity="0.4">
<path d="M30.1667 31.9808V33.5641C30.1667 33.58 30.1667 33.58 30.1667 33.5958C30.1667 35.3216 30.1509 36.7308 27 36.7308C23.865 36.7308 23.8334 35.3375 23.8334 33.6116V31.9808C23.8334 30.3975 23.8334 30.3975 25.4167 30.3975H28.5834C30.1667 30.3975 30.1667 30.3975 30.1667 31.9808Z" stroke="#75AFFF" stroke-width="2" stroke-miterlimit="10" stroke-linecap="round" stroke-linejoin="round"/>
<path d="M42.2791 28.814C38.6216 31.474 34.4416 33.0573 30.1666 33.5956" stroke="#75AFFF" stroke-width="2" stroke-miterlimit="10" stroke-linecap="round" stroke-linejoin="round"/>
<path d="M12.147 29.2407C15.7095 31.6791 19.7311 33.1516 23.832 33.6107" stroke="#75AFFF" stroke-width="2" stroke-miterlimit="10" stroke-linecap="round" stroke-linejoin="round"/>
</g>
</svg>
