<svg width="51" height="50" viewBox="0 0 51 50" fill="none" xmlns="http://www.w3.org/2000/svg">
<path fill-rule="evenodd" clip-rule="evenodd" d="M21.7724 45.8125C21.8696 46.0802 21.6983 46.3678 21.4167 46.4101C17.4406 47.0058 13.3442 46.3229 9.74155 44.1778C6.13936 42.033 3.58717 38.7576 2.21612 34.9787C2.11897 34.711 2.29022 34.4234 2.57189 34.3811C6.54797 33.7854 10.6443 34.4683 14.247 36.6134C17.8492 38.7582 20.4014 42.0336 21.7724 45.8125Z" fill="#FCE459"/>
<path fill-rule="evenodd" clip-rule="evenodd" d="M41.7671 22.8721C41.9019 23.123 42.2304 23.1871 42.4497 23.0053C45.5447 20.4391 47.767 16.9306 48.5701 12.8152C49.3733 8.70006 48.6334 4.61376 46.7307 1.07224C46.5959 0.821352 46.2673 0.75723 46.0481 0.939016C42.953 3.50526 40.7308 7.01371 39.9276 11.1291C39.1245 15.2443 39.8643 19.3306 41.7671 22.8721Z" fill="#005CDD"/>
<path opacity="0.4" d="M14.4139 38.9273V20.6384C14.4139 13.9878 16.0766 12.3252 22.7271 12.3252H34.3656C41.0161 12.3252 42.6787 13.9878 42.6787 20.6384V37.2647C42.6787 37.4975 42.6787 37.7302 42.6621 37.963" stroke="#75AFFF" stroke-width="1.98807" stroke-linecap="round" stroke-linejoin="round"/>
<path d="M19.1524 33.9395H42.6787V39.7587C42.6787 42.9676 40.0684 45.5779 36.8595 45.5779H20.2332C17.0243 45.5779 14.4139 42.9676 14.4139 39.7587V38.678C14.4139 36.0676 16.5421 33.9395 19.1524 33.9395Z" stroke="#005CDD" stroke-width="1.98807" stroke-linecap="round" stroke-linejoin="round"/>
<path opacity="0.4" d="M21.8958 20.6387H35.1968" stroke="#75AFFF" stroke-width="1.98807" stroke-linecap="round" stroke-linejoin="round"/>
<path opacity="0.4" d="M21.8958 26.458H30.2089" stroke="#75AFFF" stroke-width="1.98807" stroke-linecap="round" stroke-linejoin="round"/>
</svg>
