<svg width="24" height="25" viewBox="0 0 24 25" fill="none" xmlns="http://www.w3.org/2000/svg">
<path d="M12 15.8223C13.6569 15.8223 15 14.4791 15 12.8223C15 11.1654 13.6569 9.82227 12 9.82227C10.3431 9.82227 9 11.1654 9 12.8223C9 14.4791 10.3431 15.8223 12 15.8223Z" stroke="#7C7C7C" stroke-width="1.5" stroke-miterlimit="10" stroke-linecap="round" stroke-linejoin="round"/>
<path d="M2 13.7027V11.9427C2 10.9027 2.85 10.0427 3.9 10.0427C5.71 10.0427 6.45 8.76269 5.54 7.19269C5.02 6.29269 5.33 5.12269 6.24 4.60269L7.97 3.61269C8.76 3.14269 9.78 3.42269 10.25 4.21269L10.36 4.40269C11.26 5.97269 12.74 5.97269 13.65 4.40269L13.76 4.21269C14.23 3.42269 15.25 3.14269 16.04 3.61269L17.77 4.60269C18.68 5.12269 18.99 6.29269 18.47 7.19269C17.56 8.76269 18.3 10.0427 20.11 10.0427C21.15 10.0427 22.01 10.8927 22.01 11.9427V13.7027C22.01 14.7427 21.16 15.6027 20.11 15.6027C18.3 15.6027 17.56 16.8827 18.47 18.4527C18.99 19.3627 18.68 20.5227 17.77 21.0427L16.04 22.0327C15.25 22.5027 14.23 22.2227 13.76 21.4327L13.65 21.2427C12.75 19.6727 11.27 19.6727 10.36 21.2427L10.25 21.4327C9.78 22.2227 8.76 22.5027 7.97 22.0327L6.24 21.0427C5.33 20.5227 5.02 19.3527 5.54 18.4527C6.45 16.8827 5.71 15.6027 3.9 15.6027C2.85 15.6027 2 14.7427 2 13.7027Z" stroke="#7C7C7C" stroke-width="1.5" stroke-miterlimit="10" stroke-linecap="round" stroke-linejoin="round"/>
</svg>
