<svg width="38" height="38" viewBox="0 0 38 38" fill="none" xmlns="http://www.w3.org/2000/svg">
<rect width="38" height="38" fill="#FFF7F0"/>
<path d="M20 29.75H16C10.57 29.75 8.25 27.43 8.25 22V16C8.25 10.57 10.57 8.25 16 8.25H22C27.43 8.25 29.75 10.57 29.75 16V20C29.75 20.41 29.41 20.75 29 20.75C28.59 20.75 28.25 20.41 28.25 20V16C28.25 11.39 26.61 9.75 22 9.75H16C11.39 9.75 9.75 11.39 9.75 16V22C9.75 26.61 11.39 28.25 16 28.25H20C20.41 28.25 20.75 28.59 20.75 29C20.75 29.41 20.41 29.75 20 29.75Z" fill="#FA8F21"/>
<path d="M20 29.75H16C10.57 29.75 8.25 27.43 8.25 22V16C8.25 10.57 10.57 8.25 16 8.25H22C27.43 8.25 29.75 10.57 29.75 16V20C29.75 20.41 29.41 20.75 29 20.75C28.59 20.75 28.25 20.41 28.25 20V16C28.25 11.39 26.61 9.75 22 9.75H16C11.39 9.75 9.75 11.39 9.75 16V22C9.75 26.61 11.39 28.25 16 28.25H20C20.41 28.25 20.75 28.59 20.75 29C20.75 29.41 20.41 29.75 20 29.75Z" fill="#FA8F21"/>
<path d="M14 21.6905C13.59 21.6905 13.25 21.3505 13.25 20.9405V17.7305C13.25 17.3205 13.59 16.9805 14 16.9805C14.41 16.9805 14.75 17.3205 14.75 17.7305V20.9405C14.75 21.3605 14.41 21.6905 14 21.6905Z" fill="#FA8F21"/>
<path d="M24 21.6905C23.59 21.6905 23.25 21.3505 23.25 20.9405V17.7305C23.25 17.3205 23.59 16.9805 24 16.9805C24.41 16.9805 24.75 17.3205 24.75 17.7305V20.9405C24.75 21.3605 24.41 21.6905 24 21.6905Z" fill="#FA8F21"/>
<path d="M20 29.75H16C10.57 29.75 8.25 27.43 8.25 22V16C8.25 10.57 10.57 8.25 16 8.25H22C27.43 8.25 29.75 10.57 29.75 16V20C29.75 20.41 29.41 20.75 29 20.75C28.59 20.75 28.25 20.41 28.25 20V16C28.25 11.39 26.61 9.75 22 9.75H16C11.39 9.75 9.75 11.39 9.75 16V22C9.75 26.61 11.39 28.25 16 28.25H20C20.41 28.25 20.75 28.59 20.75 29C20.75 29.41 20.41 29.75 20 29.75Z" fill="#FA8F21"/>
<path d="M24.5793 28.7502C24.3793 28.7502 24.1893 28.6702 24.0493 28.5302L22.4693 26.9602C22.1793 26.6702 22.1693 26.1902 22.4693 25.9002C22.7593 25.6102 23.2393 25.6002 23.5293 25.9002L24.5393 26.9002L27.4393 23.5102C27.7093 23.1902 28.1793 23.1602 28.4993 23.4302C28.8093 23.7002 28.8493 24.1702 28.5793 24.4902L25.1593 28.4902C25.0193 28.6502 24.8293 28.7402 24.6193 28.7502C24.5993 28.7502 24.5893 28.7502 24.5793 28.7502Z" fill="#FA8F21"/>
<path d="M19 21.25C18.59 21.25 18.25 20.91 18.25 20.5V17.5C18.25 17.09 18.59 16.75 19 16.75C19.41 16.75 19.75 17.09 19.75 17.5V20.5C19.75 20.91 19.41 21.25 19 21.25Z" fill="#FA8F21"/>
</svg>
