<svg width="66" height="53" viewBox="0 0 66 53" fill="none" xmlns="http://www.w3.org/2000/svg">
<path d="M22.1508 44.7197C23.1207 46.198 23.4636 48.0011 23.1042 49.7322C22.7447 51.4634 21.7122 52.9809 20.2339 53.9508C18.7556 54.9208 16.9525 55.2637 15.2213 54.9042C13.4901 54.5448 11.9726 53.5123 11.0027 52.034C10.0328 50.5556 9.68983 48.7526 10.0493 47.0214C10.4088 45.2902 11.4413 43.7727 12.9196 42.8028L18.4936 39.1456L22.1508 44.7197ZM24.9378 42.8911C23.9678 41.4128 23.6249 39.6097 23.9844 37.8785C24.3438 36.1473 25.3763 34.6299 26.8546 33.6599C28.333 32.69 30.136 32.347 31.8672 32.7065C33.5984 33.066 35.1159 34.0985 36.0858 35.5768L45.2287 49.5118C46.1986 50.9902 46.5416 52.7932 46.1821 54.5244C45.8226 56.2556 44.7901 57.7731 43.3118 58.743C41.8335 59.7129 40.0304 60.0559 38.2992 59.6964C36.568 59.3369 35.0506 58.3045 34.0806 56.8261L24.9378 42.8911ZM15.8832 16.9379C14.4049 17.9078 12.6018 18.2507 10.8706 17.8913C9.13942 17.5318 7.62195 16.4993 6.65201 15.021C5.68208 13.5427 5.33913 11.7396 5.69861 10.0084C6.05809 8.27723 7.09056 6.75976 8.56888 5.78982C10.0472 4.81988 11.8503 4.47694 13.5815 4.83642C15.3126 5.1959 16.8301 6.22837 17.8001 7.70669L21.4572 13.2807L15.8832 16.9379ZM17.7118 19.7249C19.1901 18.7549 20.9932 18.412 22.7243 18.7715C24.4555 19.131 25.973 20.1634 26.9429 21.6417C27.9129 23.1201 28.2558 24.9231 27.8963 26.6543C27.5368 28.3855 26.5044 29.903 25.0261 30.8729L11.091 40.0158C9.61269 40.9857 7.8096 41.3287 6.07842 40.9692C4.34724 40.6097 2.82977 39.5772 1.85984 38.0989C0.889901 36.6206 0.546952 34.8175 0.906436 33.0863C1.26592 31.3552 2.29839 29.8377 3.77671 28.8677L17.7118 19.7249ZM43.665 10.6703C42.6951 9.19197 42.3521 7.38889 42.7116 5.65771C43.0711 3.92653 44.1035 2.40906 45.5819 1.43912C47.0602 0.469187 48.8633 0.126241 50.5944 0.485723C52.3256 0.845207 53.8431 1.87767 54.813 3.35599C55.783 4.83432 56.1259 6.6374 55.7664 8.36858C55.4069 10.0998 54.3745 11.6172 52.8962 12.5872L47.3221 16.2443L43.665 10.6703ZM40.878 12.4989C41.8479 13.9772 42.1909 15.7803 41.8314 17.5114C41.4719 19.2426 40.4394 20.7601 38.9611 21.73C37.4828 22.7 35.6797 23.0429 33.9485 22.6834C32.2173 22.324 30.6999 21.2915 29.7299 19.8132L20.5871 5.87812C19.6171 4.3998 19.2742 2.59671 19.6337 0.865535C19.9931 -0.865646 21.0256 -2.38312 22.5039 -3.35305C23.9823 -4.32299 25.7853 -4.66594 27.5165 -4.30645C29.2477 -3.94697 30.7652 -2.9145 31.7351 -1.43618L40.878 12.4989ZM49.9326 38.4521C51.4109 37.4822 53.214 37.1392 54.9451 37.4987C56.6763 37.8582 58.1938 38.8906 59.1637 40.369C60.1337 41.8473 60.4766 43.6504 60.1171 45.3816C59.7576 47.1127 58.7252 48.6302 57.2469 49.6001C55.7685 50.5701 53.9655 50.913 52.2343 50.5535C50.5031 50.1941 48.9856 49.1616 48.0157 47.6833L44.3585 42.1092L49.9326 38.4521ZM48.104 35.6651C46.6257 36.635 44.8226 36.978 43.0914 36.6185C41.3602 36.259 39.8427 35.2265 38.8728 33.7482C37.9029 32.2699 37.5599 30.4668 37.9194 28.7356C38.2789 27.0045 39.3114 25.487 40.7897 24.517L54.7247 15.3742C56.2031 14.4042 58.0061 14.0613 59.7373 14.4208C61.4685 14.7803 62.986 15.8127 63.9559 17.291C64.9258 18.7694 65.2688 20.5724 64.9093 22.3036C64.5498 24.0348 63.5174 25.5523 62.039 26.5222L48.104 35.6651Z" fill="#35CF66"/>
</svg>
