<svg width="55" height="47" viewBox="0 0 55 47" fill="none" xmlns="http://www.w3.org/2000/svg">
<path fill-rule="evenodd" clip-rule="evenodd" d="M22.5903 41.9575C22.6874 42.2252 22.5162 42.5129 22.2345 42.5551C18.2584 43.1508 14.162 42.468 10.5594 40.3228C6.95717 38.178 4.40498 34.9026 3.03393 31.1237C2.93678 30.856 3.10803 30.5684 3.3897 30.5262C7.36578 29.9304 11.4621 30.6133 15.0648 32.7584C18.667 34.9032 21.2192 38.1786 22.5903 41.9575Z" fill="#FCE459"/>
<path fill-rule="evenodd" clip-rule="evenodd" d="M35.58 20.4144C35.5664 20.6988 35.815 20.923 36.0966 20.88C40.0712 20.2738 43.7827 18.4104 46.5903 15.296C49.3976 12.1819 50.8675 8.29794 51.0599 4.28224C51.0735 3.99776 50.8249 3.77363 50.5434 3.81658C46.5687 4.42282 42.8572 6.2862 40.0497 9.40058C37.2423 12.5148 35.7724 16.3987 35.58 20.4144Z" fill="#005CDD"/>
<path d="M34.7846 15.6401L37.1287 20.3284C37.4446 20.9768 38.2924 21.5919 39.0073 21.7249L43.2467 22.4231C45.9566 22.872 46.5883 24.8338 44.6432 26.7955L41.3348 30.1039C40.7862 30.6525 40.4704 31.7331 40.6532 32.5145L41.6008 36.6043C42.3489 39.8295 40.62 41.093 37.7771 39.3973L33.8037 37.0365C33.0888 36.6043 31.8918 36.6043 31.177 37.0365L27.2036 39.3973C24.3607 41.0764 22.6317 39.8295 23.3798 36.6043L24.3275 32.5145C24.5103 31.7498 24.1945 30.6691 23.6458 30.1039L20.3375 26.7955C18.3924 24.8504 19.0241 22.8886 21.734 22.4231L25.9733 21.7249C26.6882 21.6085 27.5361 20.9768 27.852 20.3284L30.1961 15.6401C31.443 13.0965 33.5045 13.0965 34.7846 15.6401Z" stroke="#005CDD" stroke-width="2" stroke-linecap="round" stroke-linejoin="round"/>
<path opacity="0.4" d="M22.4987 15.291H12.5237" stroke="#005CDD" stroke-width="2" stroke-linecap="round" stroke-linejoin="round"/>
<path opacity="0.4" d="M17.5112 38.5659H12.5237" stroke="#005CDD" stroke-width="2" stroke-linecap="round" stroke-linejoin="round"/>
<path opacity="0.4" d="M14.1862 26.9287H12.5237" stroke="#005CDD" stroke-width="2" stroke-linecap="round" stroke-linejoin="round"/>
</svg>
