<svg width="25" height="24" viewBox="0 0 25 24" fill="none" xmlns="http://www.w3.org/2000/svg">
<path d="M12.5098 17.0003C11.6598 17.0003 10.7998 16.7803 10.1298 16.3503L4.10982 12.4203C2.98982 11.6903 2.31982 10.4603 2.31982 9.12028C2.31982 7.78028 2.98982 6.55028 4.10982 5.82028L10.1398 1.90028C11.4798 1.03028 13.5698 1.03028 14.8998 1.91028L20.8898 5.84028C21.9998 6.57028 22.6698 7.80028 22.6698 9.13028C22.6698 10.4603 21.9998 11.6903 20.8898 12.4203L14.8998 16.3503C14.2298 16.7903 13.3698 17.0003 12.5098 17.0003ZM12.5098 2.75028C11.9398 2.75028 11.3698 2.88028 10.9598 3.16028L4.93982 7.08028C4.23982 7.54028 3.82982 8.28028 3.82982 9.12028C3.82982 9.96028 4.22982 10.7003 4.93982 11.1603L10.9598 15.0903C11.7898 15.6303 13.2498 15.6303 14.0798 15.0903L20.0698 11.1603C20.7698 10.7003 21.1698 9.96028 21.1698 9.12028C21.1698 8.28028 20.7698 7.54028 20.0698 7.08028L14.0798 3.15028C13.6598 2.89028 13.0898 2.75028 12.5098 2.75028Z" fill="#292D32"/>
<path d="M12.5002 22.7501C12.0602 22.7501 11.6102 22.6901 11.2502 22.5701L8.06018 21.5101C6.55018 21.0101 5.36018 19.3601 5.37018 17.7701L5.38018 13.0801C5.38018 12.6701 5.72018 12.3301 6.13018 12.3301C6.54018 12.3301 6.88018 12.6701 6.88018 13.0801L6.87018 17.7701C6.87018 18.7101 7.65018 19.7901 8.54018 20.0901L11.7302 21.1501C12.1302 21.2801 12.8702 21.2801 13.2702 21.1501L16.4602 20.0901C17.3502 19.7901 18.1302 18.7101 18.1302 17.7801V13.1401C18.1302 12.7301 18.4702 12.3901 18.8802 12.3901C19.2902 12.3901 19.6302 12.7301 19.6302 13.1401V17.7801C19.6302 19.3701 18.4502 21.0101 16.9402 21.5201L13.7502 22.5801C13.3902 22.6901 12.9402 22.7501 12.5002 22.7501Z" fill="#292D32"/>
<path d="M21.8999 15.75C21.4899 15.75 21.1499 15.41 21.1499 15V9C21.1499 8.59 21.4899 8.25 21.8999 8.25C22.3099 8.25 22.6499 8.59 22.6499 9V15C22.6499 15.41 22.3099 15.75 21.8999 15.75Z" fill="#292D32"/>
</svg>
