<svg width="71" height="53" viewBox="0 0 71 53" fill="none" xmlns="http://www.w3.org/2000/svg">
<path d="M70.0251 -5.81522C69.6377 -6.1497 69.1665 -6.37214 68.662 -6.4586C68.1576 -6.54505 67.6392 -6.49224 67.1626 -6.30585L3.83131 18.4785C2.93376 18.8275 2.17388 19.4587 1.66607 20.2769C1.15826 21.0952 0.930005 22.0562 1.01567 23.0154C1.10133 23.9746 1.49627 24.8801 2.14104 25.5954C2.7858 26.3107 3.64549 26.7972 4.59068 26.9817L21.0001 30.2035V48.5004C20.9968 49.497 21.293 50.4716 21.8502 51.298C22.4074 52.1243 23.1999 52.7642 24.1251 53.1348C25.0488 53.512 26.0646 53.6025 27.0405 53.3946C28.0164 53.1868 28.9071 52.6901 29.5969 51.9692L37.5094 43.7629L50.0626 54.7504C50.9682 55.5537 52.1363 55.9983 53.3469 56.0004C53.8774 56 54.4046 55.9167 54.9094 55.7535C55.7343 55.4918 56.4761 55.0185 57.0612 54.3809C57.6462 53.7432 58.0539 52.9634 58.2438 52.1192L70.9282 -3.0621C71.0416 -3.55976 71.0175 -4.07891 70.8584 -4.56391C70.6993 -5.04891 70.4113 -5.48147 70.0251 -5.81522ZM50.9188 5.43478L22.9219 25.4848L7.42193 22.4442L50.9188 5.43478ZM26.0001 48.5004V33.6629L33.7469 40.4567L26.0001 48.5004ZM53.3532 51.0004L27.5157 28.3442L64.7032 1.69103L53.3532 51.0004Z" fill="#35CF66"/>
</svg>
